<svg xmlns="http://www.w3.org/2000/svg" version="1.1" xmlns:xlink="http://www.w3.org/1999/xlink" xmlns:svgjs="http://svgjs.dev/svgjs" width="1440" height="810" preserveAspectRatio="none" viewBox="0 0 1440 810"><g mask="url(&quot;#SvgjsMask1482&quot;)" fill="none"><rect width="1440" height="810" x="0" y="0" fill="url(&quot;#SvgjsLinearGradient1483&quot;)"></rect><g mask="url(&quot;#SvgjsMask1484&quot;)"><path d="M915 315L855 375L825 375L495 705L345 705" stroke-width="5" stroke="rgba(255, 255, 255, 1)"></path><path d="M907.5 315 a7.5 7.5 0 1 0 15 0 a7.5 7.5 0 1 0 -15 0zM337.5 705 a7.5 7.5 0 1 0 15 0 a7.5 7.5 0 1 0 -15 0z" fill="rgba(255, 255, 255, 1)"></path><path d="M765 765L1335 765" stroke-width="5" stroke="rgba(255, 255, 255, 1)"></path><path d="M757.5 765 a7.5 7.5 0 1 0 15 0 a7.5 7.5 0 1 0 -15 0zM1327.5 765 a7.5 7.5 0 1 0 15 0 a7.5 7.5 0 1 0 -15 0z" fill="rgba(255, 255, 255, 1)"></path><path d="M645 795L585 735L585 645L645 585L1005 585" stroke-width="5" stroke="rgba(255, 255, 255, 1)"></path><path d="M637.5 795 a7.5 7.5 0 1 0 15 0 a7.5 7.5 0 1 0 -15 0zM997.5 585 a7.5 7.5 0 1 0 15 0 a7.5 7.5 0 1 0 -15 0z" fill="rgba(255, 255, 255, 1)"></path><path d="M1305 225L1305 375L1215 465L1215 555L1365 705L1365 795" stroke-width="5" stroke="rgba(255, 255, 255, 1)"></path><path d="M1297.5 225 a7.5 7.5 0 1 0 15 0 a7.5 7.5 0 1 0 -15 0zM1357.5 795 a7.5 7.5 0 1 0 15 0 a7.5 7.5 0 1 0 -15 0z" fill="rgba(255, 255, 255, 1)"></path><path d="M825 795L675 795L615 735L615 645L645 615L705 615L825 735L885 735" stroke-width="5" stroke="rgba(255, 255, 255, 1)"></path><path d="M817.5 795 a7.5 7.5 0 1 0 15 0 a7.5 7.5 0 1 0 -15 0zM877.5 735 a7.5 7.5 0 1 0 15 0 a7.5 7.5 0 1 0 -15 0z" fill="rgba(255, 255, 255, 1)"></path><path d="M675 105L765 15L855 15L1035 195L1035 315L1125 405" stroke-width="5" stroke="rgba(255, 255, 255, 1)"></path><path d="M667.5 105 a7.5 7.5 0 1 0 15 0 a7.5 7.5 0 1 0 -15 0zM1117.5 405 a7.5 7.5 0 1 0 15 0 a7.5 7.5 0 1 0 -15 0z" fill="rgba(255, 255, 255, 1)"></path><path d="M555 375L375 375L15 15" stroke-width="5" stroke="rgba(255, 255, 255, 1)"></path><path d="M547.5 375 a7.5 7.5 0 1 0 15 0 a7.5 7.5 0 1 0 -15 0zM7.5 15 a7.5 7.5 0 1 0 15 0 a7.5 7.5 0 1 0 -15 0z" fill="rgba(255, 255, 255, 1)"></path><path d="M75 105L75 225L255 405L255 495L435 675" stroke-width="5" stroke="rgba(255, 255, 255, 1)"></path><path d="M67.5 105 a7.5 7.5 0 1 0 15 0 a7.5 7.5 0 1 0 -15 0zM427.5 675 a7.5 7.5 0 1 0 15 0 a7.5 7.5 0 1 0 -15 0z" fill="rgba(255, 255, 255, 1)"></path><path d="M465 765L345 765L315 795L15 795" stroke-width="5" stroke="rgba(255, 255, 255, 1)"></path><path d="M457.5 765 a7.5 7.5 0 1 0 15 0 a7.5 7.5 0 1 0 -15 0zM7.5 795 a7.5 7.5 0 1 0 15 0 a7.5 7.5 0 1 0 -15 0z" fill="rgba(255, 255, 255, 1)"></path><path d="M915 195L945 165L975 165L1005 195L1005 225L945 285L645 285L555 195" stroke-width="5" stroke="rgba(255, 255, 255, 1)"></path><path d="M907.5 195 a7.5 7.5 0 1 0 15 0 a7.5 7.5 0 1 0 -15 0zM547.5 195 a7.5 7.5 0 1 0 15 0 a7.5 7.5 0 1 0 -15 0z" fill="rgba(255, 255, 255, 1)"></path><path d="M915 165L375 165L345 135" stroke-width="5" stroke="rgba(255, 255, 255, 1)"></path><path d="M907.5 165 a7.5 7.5 0 1 0 15 0 a7.5 7.5 0 1 0 -15 0zM337.5 135 a7.5 7.5 0 1 0 15 0 a7.5 7.5 0 1 0 -15 0z" fill="rgba(255, 255, 255, 1)"></path><path d="M1005 105L1185 105L1275 15L1425 15" stroke-width="5" stroke="rgba(255, 255, 255, 1)"></path><path d="M997.5 105 a7.5 7.5 0 1 0 15 0 a7.5 7.5 0 1 0 -15 0zM1417.5 15 a7.5 7.5 0 1 0 15 0 a7.5 7.5 0 1 0 -15 0z" fill="rgba(255, 255, 255, 1)"></path><path d="M1095 165L1065 195L1065 315L1155 405L1245 405L1275 375L1275 165" stroke-width="5" stroke="rgba(255, 255, 255, 1)"></path><path d="M1087.5 165 a7.5 7.5 0 1 0 15 0 a7.5 7.5 0 1 0 -15 0zM1267.5 165 a7.5 7.5 0 1 0 15 0 a7.5 7.5 0 1 0 -15 0z" fill="rgba(255, 255, 255, 1)"></path><path d="M1425 225L1275 75L1245 75L1095 225L1095 315L1155 375L1185 375L1245 315" stroke-width="5" stroke="rgba(255, 255, 255, 1)"></path><path d="M1417.5 225 a7.5 7.5 0 1 0 15 0 a7.5 7.5 0 1 0 -15 0zM1237.5 315 a7.5 7.5 0 1 0 15 0 a7.5 7.5 0 1 0 -15 0z" fill="rgba(255, 255, 255, 1)"></path><path d="M15 45L15 465L165 615" stroke-width="5" stroke="rgba(255, 255, 255, 1)"></path><path d="M7.5 45 a7.5 7.5 0 1 0 15 0 a7.5 7.5 0 1 0 -15 0zM157.5 615 a7.5 7.5 0 1 0 15 0 a7.5 7.5 0 1 0 -15 0z" fill="rgba(255, 255, 255, 1)"></path><path d="M1155 225L1155 345" stroke-width="5" stroke="rgba(255, 255, 255, 1)"></path><path d="M1147.5 225 a7.5 7.5 0 1 0 15 0 a7.5 7.5 0 1 0 -15 0zM1147.5 345 a7.5 7.5 0 1 0 15 0 a7.5 7.5 0 1 0 -15 0z" fill="rgba(255, 255, 255, 1)"></path><path d="M1155 645L1155 495L975 315L975 285L1005 255" stroke-width="5" stroke="rgba(255, 255, 255, 1)"></path><path d="M1147.5 645 a7.5 7.5 0 1 0 15 0 a7.5 7.5 0 1 0 -15 0zM997.5 255 a7.5 7.5 0 1 0 15 0 a7.5 7.5 0 1 0 -15 0z" fill="rgba(255, 255, 255, 1)"></path><path d="M885 465L975 465L1035 405" stroke-width="5" stroke="rgba(255, 255, 255, 1)"></path><path d="M877.5 465 a7.5 7.5 0 1 0 15 0 a7.5 7.5 0 1 0 -15 0zM1027.5 405 a7.5 7.5 0 1 0 15 0 a7.5 7.5 0 1 0 -15 0z" fill="rgba(255, 255, 255, 1)"></path><path d="M885 375L945 315" stroke-width="5" stroke="rgba(255, 255, 255, 1)"></path><path d="M877.5 375 a7.5 7.5 0 1 0 15 0 a7.5 7.5 0 1 0 -15 0zM937.5 315 a7.5 7.5 0 1 0 15 0 a7.5 7.5 0 1 0 -15 0z" fill="rgba(255, 255, 255, 1)"></path><path d="M825 315L885 315" stroke-width="5" stroke="rgba(255, 255, 255, 1)"></path><path d="M817.5 315 a7.5 7.5 0 1 0 15 0 a7.5 7.5 0 1 0 -15 0zM877.5 315 a7.5 7.5 0 1 0 15 0 a7.5 7.5 0 1 0 -15 0z" fill="rgba(255, 255, 255, 1)"></path><path d="M375 465L375 585L465 675L495 675L795 375L795 345" stroke-width="5" stroke="rgba(255, 255, 255, 1)"></path><path d="M367.5 465 a7.5 7.5 0 1 0 15 0 a7.5 7.5 0 1 0 -15 0zM787.5 345 a7.5 7.5 0 1 0 15 0 a7.5 7.5 0 1 0 -15 0z" fill="rgba(255, 255, 255, 1)"></path><path d="M1335 555L1395 495L1395 345L1335 285L1335 165L1275 105L1245 105L1155 195" stroke-width="5" stroke="rgba(255, 255, 255, 1)"></path><path d="M1327.5 555 a7.5 7.5 0 1 0 15 0 a7.5 7.5 0 1 0 -15 0zM1147.5 195 a7.5 7.5 0 1 0 15 0 a7.5 7.5 0 1 0 -15 0z" fill="rgba(255, 255, 255, 1)"></path><path d="M375 45L615 45L645 75L645 135" stroke-width="5" stroke="rgba(255, 255, 255, 1)"></path><path d="M367.5 45 a7.5 7.5 0 1 0 15 0 a7.5 7.5 0 1 0 -15 0zM637.5 135 a7.5 7.5 0 1 0 15 0 a7.5 7.5 0 1 0 -15 0z" fill="rgba(255, 255, 255, 1)"></path><path d="M1125 495L1065 435L1035 435L915 555L675 555" stroke-width="5" stroke="rgba(255, 255, 255, 1)"></path><path d="M1117.5 495 a7.5 7.5 0 1 0 15 0 a7.5 7.5 0 1 0 -15 0zM667.5 555 a7.5 7.5 0 1 0 15 0 a7.5 7.5 0 1 0 -15 0z" fill="rgba(255, 255, 255, 1)"></path><path d="M285 315L405 435L405 585L435 615L465 615L495 645" stroke-width="5" stroke="rgba(255, 255, 255, 1)"></path><path d="M277.5 315 a7.5 7.5 0 1 0 15 0 a7.5 7.5 0 1 0 -15 0zM487.5 645 a7.5 7.5 0 1 0 15 0 a7.5 7.5 0 1 0 -15 0z" fill="rgba(255, 255, 255, 1)"></path><path d="M315 675L345 645L375 645L405 675" stroke-width="5" stroke="rgba(255, 255, 255, 1)"></path><path d="M307.5 675 a7.5 7.5 0 1 0 15 0 a7.5 7.5 0 1 0 -15 0zM397.5 675 a7.5 7.5 0 1 0 15 0 a7.5 7.5 0 1 0 -15 0z" fill="rgba(255, 255, 255, 1)"></path><path d="M225 285L105 165L105 135" stroke-width="5" stroke="rgba(255, 255, 255, 1)"></path><path d="M217.5 285 a7.5 7.5 0 1 0 15 0 a7.5 7.5 0 1 0 -15 0zM97.5 135 a7.5 7.5 0 1 0 15 0 a7.5 7.5 0 1 0 -15 0z" fill="rgba(255, 255, 255, 1)"></path><path d="M225 315L105 195" stroke-width="5" stroke="rgba(255, 255, 255, 1)"></path><path d="M217.5 315 a7.5 7.5 0 1 0 15 0 a7.5 7.5 0 1 0 -15 0zM97.5 195 a7.5 7.5 0 1 0 15 0 a7.5 7.5 0 1 0 -15 0z" fill="rgba(255, 255, 255, 1)"></path><path d="M975 615L1125 615" stroke-width="5" stroke="rgba(255, 255, 255, 1)"></path><path d="M967.5 615 a7.5 7.5 0 1 0 15 0 a7.5 7.5 0 1 0 -15 0zM1117.5 615 a7.5 7.5 0 1 0 15 0 a7.5 7.5 0 1 0 -15 0z" fill="rgba(255, 255, 255, 1)"></path><path d="M885 255L945 255" stroke-width="5" stroke="rgba(255, 255, 255, 1)"></path><path d="M877.5 255 a7.5 7.5 0 1 0 15 0 a7.5 7.5 0 1 0 -15 0zM937.5 255 a7.5 7.5 0 1 0 15 0 a7.5 7.5 0 1 0 -15 0z" fill="rgba(255, 255, 255, 1)"></path><path d="M1365 675L1425 615L1425 255L1365 195" stroke-width="5" stroke="rgba(255, 255, 255, 1)"></path><path d="M1357.5 675 a7.5 7.5 0 1 0 15 0 a7.5 7.5 0 1 0 -15 0zM1357.5 195 a7.5 7.5 0 1 0 15 0 a7.5 7.5 0 1 0 -15 0z" fill="rgba(255, 255, 255, 1)"></path><path d="M495 435L435 435L405 405" stroke-width="5" stroke="rgba(255, 255, 255, 1)"></path><path d="M487.5 435 a7.5 7.5 0 1 0 15 0 a7.5 7.5 0 1 0 -15 0zM397.5 405 a7.5 7.5 0 1 0 15 0 a7.5 7.5 0 1 0 -15 0z" fill="rgba(255, 255, 255, 1)"></path><path d="M315 15L735 15" stroke-width="5" stroke="rgba(255, 255, 255, 1)"></path><path d="M307.5 15 a7.5 7.5 0 1 0 15 0 a7.5 7.5 0 1 0 -15 0zM727.5 15 a7.5 7.5 0 1 0 15 0 a7.5 7.5 0 1 0 -15 0z" fill="rgba(255, 255, 255, 1)"></path><path d="M555 405L435 405" stroke-width="5" stroke="rgba(255, 255, 255, 1)"></path><path d="M547.5 405 a7.5 7.5 0 1 0 15 0 a7.5 7.5 0 1 0 -15 0zM427.5 405 a7.5 7.5 0 1 0 15 0 a7.5 7.5 0 1 0 -15 0z" fill="rgba(255, 255, 255, 1)"></path><path d="M1155 75L1155 15" stroke-width="5" stroke="rgba(255, 255, 255, 1)"></path><path d="M1147.5 75 a7.5 7.5 0 1 0 15 0 a7.5 7.5 0 1 0 -15 0zM1147.5 15 a7.5 7.5 0 1 0 15 0 a7.5 7.5 0 1 0 -15 0z" fill="rgba(255, 255, 255, 1)"></path><path d="M1005 645L915 735" stroke-width="5" stroke="rgba(255, 255, 255, 1)"></path><path d="M997.5 645 a7.5 7.5 0 1 0 15 0 a7.5 7.5 0 1 0 -15 0zM907.5 735 a7.5 7.5 0 1 0 15 0 a7.5 7.5 0 1 0 -15 0z" fill="rgba(255, 255, 255, 1)"></path><path d="M795 45L765 45L735 75L735 135" stroke-width="5" stroke="rgba(255, 255, 255, 1)"></path><path d="M787.5 45 a7.5 7.5 0 1 0 15 0 a7.5 7.5 0 1 0 -15 0zM727.5 135 a7.5 7.5 0 1 0 15 0 a7.5 7.5 0 1 0 -15 0z" fill="rgba(255, 255, 255, 1)"></path><path d="M165 765L315 765L345 735L555 735L615 795" stroke-width="5" stroke="rgba(255, 255, 255, 1)"></path><path d="M157.5 765 a7.5 7.5 0 1 0 15 0 a7.5 7.5 0 1 0 -15 0zM607.5 795 a7.5 7.5 0 1 0 15 0 a7.5 7.5 0 1 0 -15 0z" fill="rgba(255, 255, 255, 1)"></path><path d="M405 195L525 195L735 405" stroke-width="5" stroke="rgba(255, 255, 255, 1)"></path><path d="M397.5 195 a7.5 7.5 0 1 0 15 0 a7.5 7.5 0 1 0 -15 0zM727.5 405 a7.5 7.5 0 1 0 15 0 a7.5 7.5 0 1 0 -15 0z" fill="rgba(255, 255, 255, 1)"></path><path d="M165 645L135 615L15 615" stroke-width="5" stroke="rgba(255, 255, 255, 1)"></path><path d="M157.5 645 a7.5 7.5 0 1 0 15 0 a7.5 7.5 0 1 0 -15 0zM7.5 615 a7.5 7.5 0 1 0 15 0 a7.5 7.5 0 1 0 -15 0z" fill="rgba(255, 255, 255, 1)"></path><path d="M1335 495L1335 525L1275 585" stroke-width="5" stroke="rgba(255, 255, 255, 1)"></path><path d="M1327.5 495 a7.5 7.5 0 1 0 15 0 a7.5 7.5 0 1 0 -15 0zM1267.5 585 a7.5 7.5 0 1 0 15 0 a7.5 7.5 0 1 0 -15 0z" fill="rgba(255, 255, 255, 1)"></path><path d="M1395 705L1425 735L1425 795" stroke-width="5" stroke="rgba(255, 255, 255, 1)"></path><path d="M1387.5 705 a7.5 7.5 0 1 0 15 0 a7.5 7.5 0 1 0 -15 0zM1417.5 795 a7.5 7.5 0 1 0 15 0 a7.5 7.5 0 1 0 -15 0z" fill="rgba(255, 255, 255, 1)"></path><path d="M1155 795L1335 795" stroke-width="5" stroke="rgba(255, 255, 255, 1)"></path><path d="M1147.5 795 a7.5 7.5 0 1 0 15 0 a7.5 7.5 0 1 0 -15 0zM1327.5 795 a7.5 7.5 0 1 0 15 0 a7.5 7.5 0 1 0 -15 0z" fill="rgba(255, 255, 255, 1)"></path><path d="M165 525L105 525" stroke-width="5" stroke="rgba(255, 255, 255, 1)"></path><path d="M157.5 525 a7.5 7.5 0 1 0 15 0 a7.5 7.5 0 1 0 -15 0zM97.5 525 a7.5 7.5 0 1 0 15 0 a7.5 7.5 0 1 0 -15 0z" fill="rgba(255, 255, 255, 1)"></path><path d="M555 465L615 525" stroke-width="5" stroke="rgba(255, 255, 255, 1)"></path><path d="M547.5 465 a7.5 7.5 0 1 0 15 0 a7.5 7.5 0 1 0 -15 0zM607.5 525 a7.5 7.5 0 1 0 15 0 a7.5 7.5 0 1 0 -15 0z" fill="rgba(255, 255, 255, 1)"></path><path d="M1095 135L1065 165L1035 165L1005 135" stroke-width="5" stroke="rgba(255, 255, 255, 1)"></path><path d="M1087.5 135 a7.5 7.5 0 1 0 15 0 a7.5 7.5 0 1 0 -15 0zM997.5 135 a7.5 7.5 0 1 0 15 0 a7.5 7.5 0 1 0 -15 0z" fill="rgba(255, 255, 255, 1)"></path><path d="M225 585L285 645L315 645L345 615" stroke-width="5" stroke="rgba(255, 255, 255, 1)"></path><path d="M217.5 585 a7.5 7.5 0 1 0 15 0 a7.5 7.5 0 1 0 -15 0zM337.5 615 a7.5 7.5 0 1 0 15 0 a7.5 7.5 0 1 0 -15 0z" fill="rgba(255, 255, 255, 1)"></path><path d="M195 735L255 675L255 645L225 615L195 615L135 555" stroke-width="5" stroke="rgba(255, 255, 255, 1)"></path><path d="M187.5 735 a7.5 7.5 0 1 0 15 0 a7.5 7.5 0 1 0 -15 0zM127.5 555 a7.5 7.5 0 1 0 15 0 a7.5 7.5 0 1 0 -15 0z" fill="rgba(255, 255, 255, 1)"></path><path d="M135 735L165 735L225 675L225 645" stroke-width="5" stroke="rgba(255, 255, 255, 1)"></path><path d="M127.5 735 a7.5 7.5 0 1 0 15 0 a7.5 7.5 0 1 0 -15 0zM217.5 645 a7.5 7.5 0 1 0 15 0 a7.5 7.5 0 1 0 -15 0z" fill="rgba(255, 255, 255, 1)"></path><path d="M675 735L795 735" stroke-width="5" stroke="rgba(255, 255, 255, 1)"></path><path d="M667.5 735 a7.5 7.5 0 1 0 15 0 a7.5 7.5 0 1 0 -15 0zM787.5 735 a7.5 7.5 0 1 0 15 0 a7.5 7.5 0 1 0 -15 0z" fill="rgba(255, 255, 255, 1)"></path><path d="M1035 495L1035 585" stroke-width="5" stroke="rgba(255, 255, 255, 1)"></path><path d="M1027.5 495 a7.5 7.5 0 1 0 15 0 a7.5 7.5 0 1 0 -15 0zM1027.5 585 a7.5 7.5 0 1 0 15 0 a7.5 7.5 0 1 0 -15 0z" fill="rgba(255, 255, 255, 1)"></path><path d="M765 495L735 495L705 525" stroke-width="5" stroke="rgba(255, 255, 255, 1)"></path><path d="M757.5 495 a7.5 7.5 0 1 0 15 0 a7.5 7.5 0 1 0 -15 0zM697.5 525 a7.5 7.5 0 1 0 15 0 a7.5 7.5 0 1 0 -15 0z" fill="rgba(255, 255, 255, 1)"></path><path d="M405 285L405 225L195 15L45 15" stroke-width="5" stroke="rgba(255, 255, 255, 1)"></path><path d="M397.5 285 a7.5 7.5 0 1 0 15 0 a7.5 7.5 0 1 0 -15 0zM37.5 15 a7.5 7.5 0 1 0 15 0 a7.5 7.5 0 1 0 -15 0z" fill="rgba(255, 255, 255, 1)"></path><path d="M15 735L45 765L135 765" stroke-width="5" stroke="rgba(255, 255, 255, 1)"></path><path d="M7.5 735 a7.5 7.5 0 1 0 15 0 a7.5 7.5 0 1 0 -15 0zM127.5 765 a7.5 7.5 0 1 0 15 0 a7.5 7.5 0 1 0 -15 0z" fill="rgba(255, 255, 255, 1)"></path><path d="M915 225L885 195L795 195L735 255L645 255L585 195" stroke-width="5" stroke="rgba(255, 255, 255, 1)"></path><path d="M907.5 225 a7.5 7.5 0 1 0 15 0 a7.5 7.5 0 1 0 -15 0zM577.5 195 a7.5 7.5 0 1 0 15 0 a7.5 7.5 0 1 0 -15 0z" fill="rgba(255, 255, 255, 1)"></path><path d="M375 225L345 195L225 195L75 45" stroke-width="5" stroke="rgba(255, 255, 255, 1)"></path><path d="M367.5 225 a7.5 7.5 0 1 0 15 0 a7.5 7.5 0 1 0 -15 0zM67.5 45 a7.5 7.5 0 1 0 15 0 a7.5 7.5 0 1 0 -15 0z" fill="rgba(255, 255, 255, 1)"></path><path d="M1065 15L1125 75" stroke-width="5" stroke="rgba(255, 255, 255, 1)"></path><path d="M1057.5 15 a7.5 7.5 0 1 0 15 0 a7.5 7.5 0 1 0 -15 0zM1117.5 75 a7.5 7.5 0 1 0 15 0 a7.5 7.5 0 1 0 -15 0z" fill="rgba(255, 255, 255, 1)"></path><path d="M825 495L825 405" stroke-width="5" stroke="rgba(255, 255, 255, 1)"></path><path d="M817.5 495 a7.5 7.5 0 1 0 15 0 a7.5 7.5 0 1 0 -15 0zM817.5 405 a7.5 7.5 0 1 0 15 0 a7.5 7.5 0 1 0 -15 0z" fill="rgba(255, 255, 255, 1)"></path><path d="M1185 585L1185 465L1155 435L1125 435" stroke-width="5" stroke="rgba(255, 255, 255, 1)"></path><path d="M1177.5 585 a7.5 7.5 0 1 0 15 0 a7.5 7.5 0 1 0 -15 0zM1117.5 435 a7.5 7.5 0 1 0 15 0 a7.5 7.5 0 1 0 -15 0z" fill="rgba(255, 255, 255, 1)"></path><path d="M465 75L525 135L615 135" stroke-width="5" stroke="rgba(255, 255, 255, 1)"></path><path d="M457.5 75 a7.5 7.5 0 1 0 15 0 a7.5 7.5 0 1 0 -15 0zM607.5 135 a7.5 7.5 0 1 0 15 0 a7.5 7.5 0 1 0 -15 0z" fill="rgba(255, 255, 255, 1)"></path><path d="M945 735L1035 645L1125 645L1155 675L1155 735" stroke-width="5" stroke="rgba(255, 255, 255, 1)"></path><path d="M937.5 735 a7.5 7.5 0 1 0 15 0 a7.5 7.5 0 1 0 -15 0zM1147.5 735 a7.5 7.5 0 1 0 15 0 a7.5 7.5 0 1 0 -15 0z" fill="rgba(255, 255, 255, 1)"></path><path d="M1005 375L915 375L855 435L855 525" stroke-width="5" stroke="rgba(255, 255, 255, 1)"></path><path d="M997.5 375 a7.5 7.5 0 1 0 15 0 a7.5 7.5 0 1 0 -15 0zM847.5 525 a7.5 7.5 0 1 0 15 0 a7.5 7.5 0 1 0 -15 0z" fill="rgba(255, 255, 255, 1)"></path><path d="M105 645L165 705" stroke-width="5" stroke="rgba(255, 255, 255, 1)"></path><path d="M97.5 645 a7.5 7.5 0 1 0 15 0 a7.5 7.5 0 1 0 -15 0zM157.5 705 a7.5 7.5 0 1 0 15 0 a7.5 7.5 0 1 0 -15 0z" fill="rgba(255, 255, 255, 1)"></path><path d="M45 525L105 585" stroke-width="5" stroke="rgba(255, 255, 255, 1)"></path><path d="M37.5 525 a7.5 7.5 0 1 0 15 0 a7.5 7.5 0 1 0 -15 0zM97.5 585 a7.5 7.5 0 1 0 15 0 a7.5 7.5 0 1 0 -15 0z" fill="rgba(255, 255, 255, 1)"></path><path d="M45 705L135 705" stroke-width="5" stroke="rgba(255, 255, 255, 1)"></path><path d="M37.5 705 a7.5 7.5 0 1 0 15 0 a7.5 7.5 0 1 0 -15 0zM127.5 705 a7.5 7.5 0 1 0 15 0 a7.5 7.5 0 1 0 -15 0z" fill="rgba(255, 255, 255, 1)"></path><path d="M255 225L375 345L585 345L615 315" stroke-width="5" stroke="rgba(255, 255, 255, 1)"></path><path d="M247.5 225 a7.5 7.5 0 1 0 15 0 a7.5 7.5 0 1 0 -15 0zM607.5 315 a7.5 7.5 0 1 0 15 0 a7.5 7.5 0 1 0 -15 0z" fill="rgba(255, 255, 255, 1)"></path><path d="M315 525L315 435L345 405" stroke-width="5" stroke="rgba(255, 255, 255, 1)"></path><path d="M307.5 525 a7.5 7.5 0 1 0 15 0 a7.5 7.5 0 1 0 -15 0zM337.5 405 a7.5 7.5 0 1 0 15 0 a7.5 7.5 0 1 0 -15 0z" fill="rgba(255, 255, 255, 1)"></path><path d="M645 465L675 465L705 435L705 405L645 345L615 345L585 375L585 465L615 495L645 495" stroke-width="5" stroke="rgba(255, 255, 255, 1)"></path><path d="M637.5 465 a7.5 7.5 0 1 0 15 0 a7.5 7.5 0 1 0 -15 0zM637.5 495 a7.5 7.5 0 1 0 15 0 a7.5 7.5 0 1 0 -15 0z" fill="rgba(255, 255, 255, 1)"></path><path d="M15 645L75 645L105 675" stroke-width="5" stroke="rgba(255, 255, 255, 1)"></path><path d="M7.5 645 a7.5 7.5 0 1 0 15 0 a7.5 7.5 0 1 0 -15 0zM97.5 675 a7.5 7.5 0 1 0 15 0 a7.5 7.5 0 1 0 -15 0z" fill="rgba(255, 255, 255, 1)"></path><path d="M825 525L765 465" stroke-width="5" stroke="rgba(255, 255, 255, 1)"></path><path d="M817.5 525 a7.5 7.5 0 1 0 15 0 a7.5 7.5 0 1 0 -15 0zM757.5 465 a7.5 7.5 0 1 0 15 0 a7.5 7.5 0 1 0 -15 0z" fill="rgba(255, 255, 255, 1)"></path><path d="M825 225L795 225L765 255" stroke-width="5" stroke="rgba(255, 255, 255, 1)"></path><path d="M817.5 225 a7.5 7.5 0 1 0 15 0 a7.5 7.5 0 1 0 -15 0zM757.5 255 a7.5 7.5 0 1 0 15 0 a7.5 7.5 0 1 0 -15 0z" fill="rgba(255, 255, 255, 1)"></path><path d="M1035 705L1005 705L975 735" stroke-width="5" stroke="rgba(255, 255, 255, 1)"></path><path d="M1027.5 705 a7.5 7.5 0 1 0 15 0 a7.5 7.5 0 1 0 -15 0zM967.5 735 a7.5 7.5 0 1 0 15 0 a7.5 7.5 0 1 0 -15 0z" fill="rgba(255, 255, 255, 1)"></path><path d="M795 615L885 705" stroke-width="5" stroke="rgba(255, 255, 255, 1)"></path><path d="M787.5 615 a7.5 7.5 0 1 0 15 0 a7.5 7.5 0 1 0 -15 0zM877.5 705 a7.5 7.5 0 1 0 15 0 a7.5 7.5 0 1 0 -15 0z" fill="rgba(255, 255, 255, 1)"></path><path d="M1185 345L1185 195L1245 135L1275 135" stroke-width="5" stroke="rgba(255, 255, 255, 1)"></path><path d="M1177.5 345 a7.5 7.5 0 1 0 15 0 a7.5 7.5 0 1 0 -15 0zM1267.5 135 a7.5 7.5 0 1 0 15 0 a7.5 7.5 0 1 0 -15 0z" fill="rgba(255, 255, 255, 1)"></path><path d="M135 345L75 405" stroke-width="5" stroke="rgba(255, 255, 255, 1)"></path><path d="M127.5 345 a7.5 7.5 0 1 0 15 0 a7.5 7.5 0 1 0 -15 0zM67.5 405 a7.5 7.5 0 1 0 15 0 a7.5 7.5 0 1 0 -15 0z" fill="rgba(255, 255, 255, 1)"></path><path d="M1335 585L1395 585" stroke-width="5" stroke="rgba(255, 255, 255, 1)"></path><path d="M1327.5 585 a7.5 7.5 0 1 0 15 0 a7.5 7.5 0 1 0 -15 0zM1387.5 585 a7.5 7.5 0 1 0 15 0 a7.5 7.5 0 1 0 -15 0z" fill="rgba(255, 255, 255, 1)"></path><path d="M855 705L825 705L735 615" stroke-width="5" stroke="rgba(255, 255, 255, 1)"></path><path d="M847.5 705 a7.5 7.5 0 1 0 15 0 a7.5 7.5 0 1 0 -15 0zM727.5 615 a7.5 7.5 0 1 0 15 0 a7.5 7.5 0 1 0 -15 0z" fill="rgba(255, 255, 255, 1)"></path><path d="M75 285L45 315L45 375" stroke-width="5" stroke="rgba(255, 255, 255, 1)"></path><path d="M67.5 285 a7.5 7.5 0 1 0 15 0 a7.5 7.5 0 1 0 -15 0zM37.5 375 a7.5 7.5 0 1 0 15 0 a7.5 7.5 0 1 0 -15 0z" fill="rgba(255, 255, 255, 1)"></path><path d="M1095 795L855 795" stroke-width="5" stroke="rgba(255, 255, 255, 1)"></path><path d="M1087.5 795 a7.5 7.5 0 1 0 15 0 a7.5 7.5 0 1 0 -15 0zM847.5 795 a7.5 7.5 0 1 0 15 0 a7.5 7.5 0 1 0 -15 0z" fill="rgba(255, 255, 255, 1)"></path><path d="M255 45L285 75L315 75L375 135L495 135" stroke-width="5" stroke="rgba(255, 255, 255, 1)"></path><path d="M247.5 45 a7.5 7.5 0 1 0 15 0 a7.5 7.5 0 1 0 -15 0zM487.5 135 a7.5 7.5 0 1 0 15 0 a7.5 7.5 0 1 0 -15 0z" fill="rgba(255, 255, 255, 1)"></path><path d="M1275 555L1305 525L1305 495L1275 465L1245 465" stroke-width="5" stroke="rgba(255, 255, 255, 1)"></path><path d="M1267.5 555 a7.5 7.5 0 1 0 15 0 a7.5 7.5 0 1 0 -15 0zM1237.5 465 a7.5 7.5 0 1 0 15 0 a7.5 7.5 0 1 0 -15 0z" fill="rgba(255, 255, 255, 1)"></path><path d="M405 795L585 795" stroke-width="5" stroke="rgba(255, 255, 255, 1)"></path><path d="M397.5 795 a7.5 7.5 0 1 0 15 0 a7.5 7.5 0 1 0 -15 0zM577.5 795 a7.5 7.5 0 1 0 15 0 a7.5 7.5 0 1 0 -15 0z" fill="rgba(255, 255, 255, 1)"></path><path d="M1365 435L1305 435" stroke-width="5" stroke="rgba(255, 255, 255, 1)"></path><path d="M1357.5 435 a7.5 7.5 0 1 0 15 0 a7.5 7.5 0 1 0 -15 0zM1297.5 435 a7.5 7.5 0 1 0 15 0 a7.5 7.5 0 1 0 -15 0z" fill="rgba(255, 255, 255, 1)"></path><path d="M945 15L885 15" stroke-width="5" stroke="rgba(255, 255, 255, 1)"></path><path d="M937.5 15 a7.5 7.5 0 1 0 15 0 a7.5 7.5 0 1 0 -15 0zM877.5 15 a7.5 7.5 0 1 0 15 0 a7.5 7.5 0 1 0 -15 0z" fill="rgba(255, 255, 255, 1)"></path><path d="M1305 675L1335 705L1335 735" stroke-width="5" stroke="rgba(255, 255, 255, 1)"></path><path d="M1297.5 675 a7.5 7.5 0 1 0 15 0 a7.5 7.5 0 1 0 -15 0zM1327.5 735 a7.5 7.5 0 1 0 15 0 a7.5 7.5 0 1 0 -15 0z" fill="rgba(255, 255, 255, 1)"></path><path d="M45 555L15 525L15 495" stroke-width="5" stroke="rgba(255, 255, 255, 1)"></path><path d="M37.5 555 a7.5 7.5 0 1 0 15 0 a7.5 7.5 0 1 0 -15 0zM7.5 495 a7.5 7.5 0 1 0 15 0 a7.5 7.5 0 1 0 -15 0z" fill="rgba(255, 255, 255, 1)"></path><path d="M1095 675L1035 675" stroke-width="5" stroke="rgba(255, 255, 255, 1)"></path><path d="M1087.5 675 a7.5 7.5 0 1 0 15 0 a7.5 7.5 0 1 0 -15 0zM1027.5 675 a7.5 7.5 0 1 0 15 0 a7.5 7.5 0 1 0 -15 0z" fill="rgba(255, 255, 255, 1)"></path><path d="M1125 585L1065 525L1065 495" stroke-width="5" stroke="rgba(255, 255, 255, 1)"></path><path d="M1117.5 585 a7.5 7.5 0 1 0 15 0 a7.5 7.5 0 1 0 -15 0zM1057.5 495 a7.5 7.5 0 1 0 15 0 a7.5 7.5 0 1 0 -15 0z" fill="rgba(255, 255, 255, 1)"></path><path d="M555 585L585 555L585 525L525 465L465 465L435 495L435 585" stroke-width="5" stroke="rgba(255, 255, 255, 1)"></path><path d="M547.5 585 a7.5 7.5 0 1 0 15 0 a7.5 7.5 0 1 0 -15 0zM427.5 585 a7.5 7.5 0 1 0 15 0 a7.5 7.5 0 1 0 -15 0z" fill="rgba(255, 255, 255, 1)"></path><path d="M1035 45L975 105" stroke-width="5" stroke="rgba(255, 255, 255, 1)"></path><path d="M1027.5 45 a7.5 7.5 0 1 0 15 0 a7.5 7.5 0 1 0 -15 0zM967.5 105 a7.5 7.5 0 1 0 15 0 a7.5 7.5 0 1 0 -15 0z" fill="rgba(255, 255, 255, 1)"></path><path d="M45 165L45 105" stroke-width="5" stroke="rgba(255, 255, 255, 1)"></path><path d="M37.5 165 a7.5 7.5 0 1 0 15 0 a7.5 7.5 0 1 0 -15 0zM37.5 105 a7.5 7.5 0 1 0 15 0 a7.5 7.5 0 1 0 -15 0z" fill="rgba(255, 255, 255, 1)"></path><path d="M1365 75L1425 75" stroke-width="5" stroke="rgba(255, 255, 255, 1)"></path><path d="M1357.5 75 a7.5 7.5 0 1 0 15 0 a7.5 7.5 0 1 0 -15 0zM1417.5 75 a7.5 7.5 0 1 0 15 0 a7.5 7.5 0 1 0 -15 0z" fill="rgba(255, 255, 255, 1)"></path><path d="M1245 675L1245 615" stroke-width="5" stroke="rgba(255, 255, 255, 1)"></path><path d="M1237.5 675 a7.5 7.5 0 1 0 15 0 a7.5 7.5 0 1 0 -15 0zM1237.5 615 a7.5 7.5 0 1 0 15 0 a7.5 7.5 0 1 0 -15 0z" fill="rgba(255, 255, 255, 1)"></path><path d="M1305 735L1185 735" stroke-width="5" stroke="rgba(255, 255, 255, 1)"></path><path d="M1297.5 735 a7.5 7.5 0 1 0 15 0 a7.5 7.5 0 1 0 -15 0zM1177.5 735 a7.5 7.5 0 1 0 15 0 a7.5 7.5 0 1 0 -15 0z" fill="rgba(255, 255, 255, 1)"></path><path d="M105 435L225 435" stroke-width="5" stroke="rgba(255, 255, 255, 1)"></path><path d="M97.5 435 a7.5 7.5 0 1 0 15 0 a7.5 7.5 0 1 0 -15 0zM217.5 435 a7.5 7.5 0 1 0 15 0 a7.5 7.5 0 1 0 -15 0z" fill="rgba(255, 255, 255, 1)"></path><path d="M885 135L765 135" stroke-width="5" stroke="rgba(255, 255, 255, 1)"></path><path d="M877.5 135 a7.5 7.5 0 1 0 15 0 a7.5 7.5 0 1 0 -15 0zM757.5 135 a7.5 7.5 0 1 0 15 0 a7.5 7.5 0 1 0 -15 0z" fill="rgba(255, 255, 255, 1)"></path><path d="M135 405L225 405" stroke-width="5" stroke="rgba(255, 255, 255, 1)"></path><path d="M127.5 405 a7.5 7.5 0 1 0 15 0 a7.5 7.5 0 1 0 -15 0zM217.5 405 a7.5 7.5 0 1 0 15 0 a7.5 7.5 0 1 0 -15 0z" fill="rgba(255, 255, 255, 1)"></path><path d="M525 525L495 495L465 495" stroke-width="5" stroke="rgba(255, 255, 255, 1)"></path><path d="M517.5 525 a7.5 7.5 0 1 0 15 0 a7.5 7.5 0 1 0 -15 0zM457.5 495 a7.5 7.5 0 1 0 15 0 a7.5 7.5 0 1 0 -15 0z" fill="rgba(255, 255, 255, 1)"></path><path d="M675 765L735 765" stroke-width="5" stroke="rgba(255, 255, 255, 1)"></path><path d="M667.5 765 a7.5 7.5 0 1 0 15 0 a7.5 7.5 0 1 0 -15 0zM727.5 765 a7.5 7.5 0 1 0 15 0 a7.5 7.5 0 1 0 -15 0z" fill="rgba(255, 255, 255, 1)"></path><path d="M405 315L525 315L555 285L585 285" stroke-width="5" stroke="rgba(255, 255, 255, 1)"></path><path d="M397.5 315 a7.5 7.5 0 1 0 15 0 a7.5 7.5 0 1 0 -15 0zM577.5 285 a7.5 7.5 0 1 0 15 0 a7.5 7.5 0 1 0 -15 0z" fill="rgba(255, 255, 255, 1)"></path><path d="M255 165L315 165" stroke-width="5" stroke="rgba(255, 255, 255, 1)"></path><path d="M247.5 165 a7.5 7.5 0 1 0 15 0 a7.5 7.5 0 1 0 -15 0zM307.5 165 a7.5 7.5 0 1 0 15 0 a7.5 7.5 0 1 0 -15 0z" fill="rgba(255, 255, 255, 1)"></path><path d="M315 735L315 705L285 675" stroke-width="5" stroke="rgba(255, 255, 255, 1)"></path><path d="M307.5 735 a7.5 7.5 0 1 0 15 0 a7.5 7.5 0 1 0 -15 0zM277.5 675 a7.5 7.5 0 1 0 15 0 a7.5 7.5 0 1 0 -15 0z" fill="rgba(255, 255, 255, 1)"></path><path d="M1365 375L1335 345L1335 315" stroke-width="5" stroke="rgba(255, 255, 255, 1)"></path><path d="M1357.5 375 a7.5 7.5 0 1 0 15 0 a7.5 7.5 0 1 0 -15 0zM1327.5 315 a7.5 7.5 0 1 0 15 0 a7.5 7.5 0 1 0 -15 0z" fill="rgba(255, 255, 255, 1)"></path><path d="M645 225L705 225L735 195" stroke-width="5" stroke="rgba(255, 255, 255, 1)"></path><path d="M637.5 225 a7.5 7.5 0 1 0 15 0 a7.5 7.5 0 1 0 -15 0zM727.5 195 a7.5 7.5 0 1 0 15 0 a7.5 7.5 0 1 0 -15 0z" fill="rgba(255, 255, 255, 1)"></path><path d="M885 615L825 615" stroke-width="5" stroke="rgba(255, 255, 255, 1)"></path><path d="M877.5 615 a7.5 7.5 0 1 0 15 0 a7.5 7.5 0 1 0 -15 0zM817.5 615 a7.5 7.5 0 1 0 15 0 a7.5 7.5 0 1 0 -15 0z" fill="rgba(255, 255, 255, 1)"></path><path d="M525 615L495 615L465 585L465 525" stroke-width="5" stroke="rgba(255, 255, 255, 1)"></path><path d="M517.5 615 a7.5 7.5 0 1 0 15 0 a7.5 7.5 0 1 0 -15 0zM457.5 525 a7.5 7.5 0 1 0 15 0 a7.5 7.5 0 1 0 -15 0z" fill="rgba(255, 255, 255, 1)"></path><path d="M255 15L285 15L315 45L345 45L405 105L435 105" stroke-width="5" stroke="rgba(255, 255, 255, 1)"></path><path d="M247.5 15 a7.5 7.5 0 1 0 15 0 a7.5 7.5 0 1 0 -15 0zM427.5 105 a7.5 7.5 0 1 0 15 0 a7.5 7.5 0 1 0 -15 0z" fill="rgba(255, 255, 255, 1)"></path><path d="M285 405L285 495" stroke-width="5" stroke="rgba(255, 255, 255, 1)"></path><path d="M277.5 405 a7.5 7.5 0 1 0 15 0 a7.5 7.5 0 1 0 -15 0zM277.5 495 a7.5 7.5 0 1 0 15 0 a7.5 7.5 0 1 0 -15 0z" fill="rgba(255, 255, 255, 1)"></path><path d="M315 405L315 375L255 315" stroke-width="5" stroke="rgba(255, 255, 255, 1)"></path><path d="M307.5 405 a7.5 7.5 0 1 0 15 0 a7.5 7.5 0 1 0 -15 0zM247.5 315 a7.5 7.5 0 1 0 15 0 a7.5 7.5 0 1 0 -15 0z" fill="rgba(255, 255, 255, 1)"></path><path d="M855 45L855 75L885 105" stroke-width="5" stroke="rgba(255, 255, 255, 1)"></path><path d="M847.5 45 a7.5 7.5 0 1 0 15 0 a7.5 7.5 0 1 0 -15 0zM877.5 105 a7.5 7.5 0 1 0 15 0 a7.5 7.5 0 1 0 -15 0z" fill="rgba(255, 255, 255, 1)"></path><path d="M1245 285L1245 165" stroke-width="5" stroke="rgba(255, 255, 255, 1)"></path><path d="M1237.5 285 a7.5 7.5 0 1 0 15 0 a7.5 7.5 0 1 0 -15 0zM1237.5 165 a7.5 7.5 0 1 0 15 0 a7.5 7.5 0 1 0 -15 0z" fill="rgba(255, 255, 255, 1)"></path><path d="M645 645L705 645L765 705" stroke-width="5" stroke="rgba(255, 255, 255, 1)"></path><path d="M637.5 645 a7.5 7.5 0 1 0 15 0 a7.5 7.5 0 1 0 -15 0zM757.5 705 a7.5 7.5 0 1 0 15 0 a7.5 7.5 0 1 0 -15 0z" fill="rgba(255, 255, 255, 1)"></path><path d="M495 75L525 75L555 105L585 105" stroke-width="5" stroke="rgba(255, 255, 255, 1)"></path><path d="M487.5 75 a7.5 7.5 0 1 0 15 0 a7.5 7.5 0 1 0 -15 0zM577.5 105 a7.5 7.5 0 1 0 15 0 a7.5 7.5 0 1 0 -15 0z" fill="rgba(255, 255, 255, 1)"></path><path d="M1185 705L1185 645" stroke-width="5" stroke="rgba(255, 255, 255, 1)"></path><path d="M1177.5 705 a7.5 7.5 0 1 0 15 0 a7.5 7.5 0 1 0 -15 0zM1177.5 645 a7.5 7.5 0 1 0 15 0 a7.5 7.5 0 1 0 -15 0z" fill="rgba(255, 255, 255, 1)"></path><path d="M165 465L195 465L285 555" stroke-width="5" stroke="rgba(255, 255, 255, 1)"></path><path d="M157.5 465 a7.5 7.5 0 1 0 15 0 a7.5 7.5 0 1 0 -15 0zM277.5 555 a7.5 7.5 0 1 0 15 0 a7.5 7.5 0 1 0 -15 0z" fill="rgba(255, 255, 255, 1)"></path><path d="M1335 645L1305 615L1305 585" stroke-width="5" stroke="rgba(255, 255, 255, 1)"></path><path d="M1327.5 645 a7.5 7.5 0 1 0 15 0 a7.5 7.5 0 1 0 -15 0zM1297.5 585 a7.5 7.5 0 1 0 15 0 a7.5 7.5 0 1 0 -15 0z" fill="rgba(255, 255, 255, 1)"></path><path d="M195 135L225 105L225 75L195 45L135 45" stroke-width="5" stroke="rgba(255, 255, 255, 1)"></path><path d="M187.5 135 a7.5 7.5 0 1 0 15 0 a7.5 7.5 0 1 0 -15 0zM127.5 45 a7.5 7.5 0 1 0 15 0 a7.5 7.5 0 1 0 -15 0z" fill="rgba(255, 255, 255, 1)"></path><path d="M525 585L555 555L555 525" stroke-width="5" stroke="rgba(255, 255, 255, 1)"></path><path d="M517.5 585 a7.5 7.5 0 1 0 15 0 a7.5 7.5 0 1 0 -15 0zM547.5 525 a7.5 7.5 0 1 0 15 0 a7.5 7.5 0 1 0 -15 0z" fill="rgba(255, 255, 255, 1)"></path><path d="M105 735L45 735" stroke-width="5" stroke="rgba(255, 255, 255, 1)"></path><path d="M97.5 735 a7.5 7.5 0 1 0 15 0 a7.5 7.5 0 1 0 -15 0zM37.5 735 a7.5 7.5 0 1 0 15 0 a7.5 7.5 0 1 0 -15 0z" fill="rgba(255, 255, 255, 1)"></path><path d="M945 45L975 15L1035 15" stroke-width="5" stroke="rgba(255, 255, 255, 1)"></path><path d="M937.5 45 a7.5 7.5 0 1 0 15 0 a7.5 7.5 0 1 0 -15 0zM1027.5 15 a7.5 7.5 0 1 0 15 0 a7.5 7.5 0 1 0 -15 0z" fill="rgba(255, 255, 255, 1)"></path><path d="M1215 255L1215 195" stroke-width="5" stroke="rgba(255, 255, 255, 1)"></path><path d="M1207.5 255 a7.5 7.5 0 1 0 15 0 a7.5 7.5 0 1 0 -15 0zM1207.5 195 a7.5 7.5 0 1 0 15 0 a7.5 7.5 0 1 0 -15 0z" fill="rgba(255, 255, 255, 1)"></path><path d="M675 315L795 315" stroke-width="5" stroke="rgba(255, 255, 255, 1)"></path><path d="M667.5 315 a7.5 7.5 0 1 0 15 0 a7.5 7.5 0 1 0 -15 0zM787.5 315 a7.5 7.5 0 1 0 15 0 a7.5 7.5 0 1 0 -15 0z" fill="rgba(255, 255, 255, 1)"></path><path d="M915 615L885 645L855 645" stroke-width="5" stroke="rgba(255, 255, 255, 1)"></path><path d="M907.5 615 a7.5 7.5 0 1 0 15 0 a7.5 7.5 0 1 0 -15 0zM847.5 645 a7.5 7.5 0 1 0 15 0 a7.5 7.5 0 1 0 -15 0z" fill="rgba(255, 255, 255, 1)"></path><path d="M945 405L1005 405" stroke-width="5" stroke="rgba(255, 255, 255, 1)"></path><path d="M937.5 405 a7.5 7.5 0 1 0 15 0 a7.5 7.5 0 1 0 -15 0zM997.5 405 a7.5 7.5 0 1 0 15 0 a7.5 7.5 0 1 0 -15 0z" fill="rgba(255, 255, 255, 1)"></path><path d="M615 435L645 405L675 405" stroke-width="5" stroke="rgba(255, 255, 255, 1)"></path><path d="M607.5 435 a7.5 7.5 0 1 0 15 0 a7.5 7.5 0 1 0 -15 0zM667.5 405 a7.5 7.5 0 1 0 15 0 a7.5 7.5 0 1 0 -15 0z" fill="rgba(255, 255, 255, 1)"></path><path d="M75 315L75 375" stroke-width="5" stroke="rgba(255, 255, 255, 1)"></path><path d="M67.5 315 a7.5 7.5 0 1 0 15 0 a7.5 7.5 0 1 0 -15 0zM67.5 375 a7.5 7.5 0 1 0 15 0 a7.5 7.5 0 1 0 -15 0z" fill="rgba(255, 255, 255, 1)"></path><path d="M1305 45L1425 45" stroke-width="5" stroke="rgba(255, 255, 255, 1)"></path><path d="M1297.5 45 a7.5 7.5 0 1 0 15 0 a7.5 7.5 0 1 0 -15 0zM1417.5 45 a7.5 7.5 0 1 0 15 0 a7.5 7.5 0 1 0 -15 0z" fill="rgba(255, 255, 255, 1)"></path><path d="M255 555L195 495L165 495" stroke-width="5" stroke="rgba(255, 255, 255, 1)"></path><path d="M247.5 555 a7.5 7.5 0 1 0 15 0 a7.5 7.5 0 1 0 -15 0zM157.5 495 a7.5 7.5 0 1 0 15 0 a7.5 7.5 0 1 0 -15 0z" fill="rgba(255, 255, 255, 1)"></path><path d="M1335 75L1335 105L1365 135" stroke-width="5" stroke="rgba(255, 255, 255, 1)"></path><path d="M1327.5 75 a7.5 7.5 0 1 0 15 0 a7.5 7.5 0 1 0 -15 0zM1357.5 135 a7.5 7.5 0 1 0 15 0 a7.5 7.5 0 1 0 -15 0z" fill="rgba(255, 255, 255, 1)"></path></g></g><defs><mask id="SvgjsMask1482"><rect width="1440" height="810" fill="#ffffff"></rect></mask><linearGradient x1="10.94%" y1="-19.44%" x2="89.06%" y2="119.44%" gradientUnits="userSpaceOnUse" id="SvgjsLinearGradient1483"><stop stop-color="#0e2a47" offset="0"></stop><stop stop-color="rgba(0, 204, 255, 1)" offset="1"></stop></linearGradient><mask id="SvgjsMask1484"><rect width="1440" height="810" fill="white"></rect><path d="M911.25 315 a3.75 3.75 0 1 0 7.5 0 a3.75 3.75 0 1 0 -7.5 0zM341.25 705 a3.75 3.75 0 1 0 7.5 0 a3.75 3.75 0 1 0 -7.5 0z" fill="black"></path><path d="M761.25 765 a3.75 3.75 0 1 0 7.5 0 a3.75 3.75 0 1 0 -7.5 0zM1331.25 765 a3.75 3.75 0 1 0 7.5 0 a3.75 3.75 0 1 0 -7.5 0z" fill="black"></path><path d="M641.25 795 a3.75 3.75 0 1 0 7.5 0 a3.75 3.75 0 1 0 -7.5 0zM1001.25 585 a3.75 3.75 0 1 0 7.5 0 a3.75 3.75 0 1 0 -7.5 0z" fill="black"></path><path d="M1301.25 225 a3.75 3.75 0 1 0 7.5 0 a3.75 3.75 0 1 0 -7.5 0zM1361.25 795 a3.75 3.75 0 1 0 7.5 0 a3.75 3.75 0 1 0 -7.5 0z" fill="black"></path><path d="M821.25 795 a3.75 3.75 0 1 0 7.5 0 a3.75 3.75 0 1 0 -7.5 0zM881.25 735 a3.75 3.75 0 1 0 7.5 0 a3.75 3.75 0 1 0 -7.5 0z" fill="black"></path><path d="M671.25 105 a3.75 3.75 0 1 0 7.5 0 a3.75 3.75 0 1 0 -7.5 0zM1121.25 405 a3.75 3.75 0 1 0 7.5 0 a3.75 3.75 0 1 0 -7.5 0z" fill="black"></path><path d="M551.25 375 a3.75 3.75 0 1 0 7.5 0 a3.75 3.75 0 1 0 -7.5 0zM11.25 15 a3.75 3.75 0 1 0 7.5 0 a3.75 3.75 0 1 0 -7.5 0z" fill="black"></path><path d="M71.25 105 a3.75 3.75 0 1 0 7.5 0 a3.75 3.75 0 1 0 -7.5 0zM431.25 675 a3.75 3.75 0 1 0 7.5 0 a3.75 3.75 0 1 0 -7.5 0z" fill="black"></path><path d="M461.25 765 a3.75 3.75 0 1 0 7.5 0 a3.75 3.75 0 1 0 -7.5 0zM11.25 795 a3.75 3.75 0 1 0 7.5 0 a3.75 3.75 0 1 0 -7.5 0z" fill="black"></path><path d="M911.25 195 a3.75 3.75 0 1 0 7.5 0 a3.75 3.75 0 1 0 -7.5 0zM551.25 195 a3.75 3.75 0 1 0 7.5 0 a3.75 3.75 0 1 0 -7.5 0z" fill="black"></path><path d="M911.25 165 a3.75 3.75 0 1 0 7.5 0 a3.75 3.75 0 1 0 -7.5 0zM341.25 135 a3.75 3.75 0 1 0 7.5 0 a3.75 3.75 0 1 0 -7.5 0z" fill="black"></path><path d="M1001.25 105 a3.75 3.75 0 1 0 7.5 0 a3.75 3.75 0 1 0 -7.5 0zM1421.25 15 a3.75 3.75 0 1 0 7.5 0 a3.75 3.75 0 1 0 -7.5 0z" fill="black"></path><path d="M1091.25 165 a3.75 3.75 0 1 0 7.5 0 a3.75 3.75 0 1 0 -7.5 0zM1271.25 165 a3.75 3.75 0 1 0 7.5 0 a3.75 3.75 0 1 0 -7.5 0z" fill="black"></path><path d="M1421.25 225 a3.75 3.75 0 1 0 7.5 0 a3.75 3.75 0 1 0 -7.5 0zM1241.25 315 a3.75 3.75 0 1 0 7.5 0 a3.75 3.75 0 1 0 -7.5 0z" fill="black"></path><path d="M11.25 45 a3.75 3.75 0 1 0 7.5 0 a3.75 3.75 0 1 0 -7.5 0zM161.25 615 a3.75 3.75 0 1 0 7.5 0 a3.75 3.75 0 1 0 -7.5 0z" fill="black"></path><path d="M1151.25 225 a3.75 3.75 0 1 0 7.5 0 a3.75 3.75 0 1 0 -7.5 0zM1151.25 345 a3.75 3.75 0 1 0 7.5 0 a3.75 3.75 0 1 0 -7.5 0z" fill="black"></path><path d="M1151.25 645 a3.75 3.75 0 1 0 7.5 0 a3.75 3.75 0 1 0 -7.5 0zM1001.25 255 a3.75 3.75 0 1 0 7.5 0 a3.75 3.75 0 1 0 -7.5 0z" fill="black"></path><path d="M881.25 465 a3.75 3.75 0 1 0 7.5 0 a3.75 3.75 0 1 0 -7.5 0zM1031.25 405 a3.75 3.75 0 1 0 7.5 0 a3.75 3.75 0 1 0 -7.5 0z" fill="black"></path><path d="M881.25 375 a3.75 3.75 0 1 0 7.5 0 a3.75 3.75 0 1 0 -7.5 0zM941.25 315 a3.75 3.75 0 1 0 7.5 0 a3.75 3.75 0 1 0 -7.5 0z" fill="black"></path><path d="M821.25 315 a3.75 3.75 0 1 0 7.5 0 a3.75 3.75 0 1 0 -7.5 0zM881.25 315 a3.75 3.75 0 1 0 7.5 0 a3.75 3.75 0 1 0 -7.5 0z" fill="black"></path><path d="M371.25 465 a3.75 3.75 0 1 0 7.5 0 a3.75 3.75 0 1 0 -7.5 0zM791.25 345 a3.75 3.75 0 1 0 7.5 0 a3.75 3.75 0 1 0 -7.5 0z" fill="black"></path><path d="M1331.25 555 a3.75 3.75 0 1 0 7.5 0 a3.75 3.75 0 1 0 -7.5 0zM1151.25 195 a3.75 3.75 0 1 0 7.5 0 a3.75 3.75 0 1 0 -7.5 0z" fill="black"></path><path d="M371.25 45 a3.75 3.75 0 1 0 7.5 0 a3.75 3.75 0 1 0 -7.5 0zM641.25 135 a3.75 3.75 0 1 0 7.5 0 a3.75 3.75 0 1 0 -7.5 0z" fill="black"></path><path d="M1121.25 495 a3.75 3.75 0 1 0 7.5 0 a3.75 3.75 0 1 0 -7.5 0zM671.25 555 a3.75 3.75 0 1 0 7.5 0 a3.75 3.75 0 1 0 -7.5 0z" fill="black"></path><path d="M281.25 315 a3.75 3.75 0 1 0 7.5 0 a3.75 3.75 0 1 0 -7.5 0zM491.25 645 a3.75 3.75 0 1 0 7.5 0 a3.75 3.75 0 1 0 -7.5 0z" fill="black"></path><path d="M311.25 675 a3.75 3.75 0 1 0 7.5 0 a3.75 3.75 0 1 0 -7.5 0zM401.25 675 a3.75 3.75 0 1 0 7.5 0 a3.75 3.75 0 1 0 -7.5 0z" fill="black"></path><path d="M221.25 285 a3.75 3.75 0 1 0 7.5 0 a3.75 3.75 0 1 0 -7.5 0zM101.25 135 a3.75 3.75 0 1 0 7.5 0 a3.75 3.75 0 1 0 -7.5 0z" fill="black"></path><path d="M221.25 315 a3.75 3.75 0 1 0 7.5 0 a3.75 3.75 0 1 0 -7.5 0zM101.25 195 a3.75 3.75 0 1 0 7.5 0 a3.75 3.75 0 1 0 -7.5 0z" fill="black"></path><path d="M971.25 615 a3.75 3.75 0 1 0 7.5 0 a3.75 3.75 0 1 0 -7.5 0zM1121.25 615 a3.75 3.75 0 1 0 7.5 0 a3.75 3.75 0 1 0 -7.5 0z" fill="black"></path><path d="M881.25 255 a3.75 3.75 0 1 0 7.5 0 a3.75 3.75 0 1 0 -7.5 0zM941.25 255 a3.75 3.75 0 1 0 7.5 0 a3.75 3.75 0 1 0 -7.5 0z" fill="black"></path><path d="M1361.25 675 a3.75 3.75 0 1 0 7.5 0 a3.75 3.75 0 1 0 -7.5 0zM1361.25 195 a3.75 3.75 0 1 0 7.5 0 a3.75 3.75 0 1 0 -7.5 0z" fill="black"></path><path d="M491.25 435 a3.75 3.75 0 1 0 7.5 0 a3.75 3.75 0 1 0 -7.5 0zM401.25 405 a3.75 3.75 0 1 0 7.5 0 a3.75 3.75 0 1 0 -7.5 0z" fill="black"></path><path d="M311.25 15 a3.75 3.75 0 1 0 7.5 0 a3.75 3.75 0 1 0 -7.5 0zM731.25 15 a3.75 3.75 0 1 0 7.5 0 a3.75 3.75 0 1 0 -7.5 0z" fill="black"></path><path d="M551.25 405 a3.75 3.75 0 1 0 7.5 0 a3.75 3.75 0 1 0 -7.5 0zM431.25 405 a3.75 3.75 0 1 0 7.5 0 a3.75 3.75 0 1 0 -7.5 0z" fill="black"></path><path d="M1151.25 75 a3.75 3.75 0 1 0 7.5 0 a3.75 3.75 0 1 0 -7.5 0zM1151.25 15 a3.75 3.75 0 1 0 7.5 0 a3.75 3.75 0 1 0 -7.5 0z" fill="black"></path><path d="M1001.25 645 a3.75 3.75 0 1 0 7.5 0 a3.75 3.75 0 1 0 -7.5 0zM911.25 735 a3.75 3.75 0 1 0 7.5 0 a3.75 3.75 0 1 0 -7.5 0z" fill="black"></path><path d="M791.25 45 a3.75 3.75 0 1 0 7.5 0 a3.75 3.75 0 1 0 -7.5 0zM731.25 135 a3.75 3.75 0 1 0 7.5 0 a3.75 3.75 0 1 0 -7.5 0z" fill="black"></path><path d="M161.25 765 a3.75 3.75 0 1 0 7.5 0 a3.75 3.75 0 1 0 -7.5 0zM611.25 795 a3.75 3.75 0 1 0 7.5 0 a3.75 3.75 0 1 0 -7.5 0z" fill="black"></path><path d="M401.25 195 a3.75 3.75 0 1 0 7.5 0 a3.75 3.75 0 1 0 -7.5 0zM731.25 405 a3.75 3.75 0 1 0 7.5 0 a3.75 3.75 0 1 0 -7.5 0z" fill="black"></path><path d="M161.25 645 a3.75 3.75 0 1 0 7.5 0 a3.75 3.75 0 1 0 -7.5 0zM11.25 615 a3.75 3.75 0 1 0 7.5 0 a3.75 3.75 0 1 0 -7.5 0z" fill="black"></path><path d="M1331.25 495 a3.75 3.75 0 1 0 7.5 0 a3.75 3.75 0 1 0 -7.5 0zM1271.25 585 a3.75 3.75 0 1 0 7.5 0 a3.75 3.75 0 1 0 -7.5 0z" fill="black"></path><path d="M1391.25 705 a3.75 3.75 0 1 0 7.5 0 a3.75 3.75 0 1 0 -7.5 0zM1421.25 795 a3.75 3.75 0 1 0 7.5 0 a3.75 3.75 0 1 0 -7.5 0z" fill="black"></path><path d="M1151.25 795 a3.75 3.75 0 1 0 7.5 0 a3.75 3.75 0 1 0 -7.5 0zM1331.25 795 a3.75 3.75 0 1 0 7.5 0 a3.75 3.75 0 1 0 -7.5 0z" fill="black"></path><path d="M161.25 525 a3.75 3.75 0 1 0 7.5 0 a3.75 3.75 0 1 0 -7.5 0zM101.25 525 a3.75 3.75 0 1 0 7.5 0 a3.75 3.75 0 1 0 -7.5 0z" fill="black"></path><path d="M551.25 465 a3.75 3.75 0 1 0 7.5 0 a3.75 3.75 0 1 0 -7.5 0zM611.25 525 a3.75 3.75 0 1 0 7.5 0 a3.75 3.75 0 1 0 -7.5 0z" fill="black"></path><path d="M1091.25 135 a3.75 3.75 0 1 0 7.5 0 a3.75 3.75 0 1 0 -7.5 0zM1001.25 135 a3.75 3.75 0 1 0 7.5 0 a3.75 3.75 0 1 0 -7.5 0z" fill="black"></path><path d="M221.25 585 a3.75 3.75 0 1 0 7.5 0 a3.75 3.75 0 1 0 -7.5 0zM341.25 615 a3.75 3.75 0 1 0 7.5 0 a3.75 3.75 0 1 0 -7.5 0z" fill="black"></path><path d="M191.25 735 a3.75 3.75 0 1 0 7.5 0 a3.75 3.75 0 1 0 -7.5 0zM131.25 555 a3.75 3.75 0 1 0 7.5 0 a3.75 3.75 0 1 0 -7.5 0z" fill="black"></path><path d="M131.25 735 a3.75 3.75 0 1 0 7.5 0 a3.75 3.75 0 1 0 -7.5 0zM221.25 645 a3.75 3.75 0 1 0 7.5 0 a3.75 3.75 0 1 0 -7.5 0z" fill="black"></path><path d="M671.25 735 a3.75 3.75 0 1 0 7.5 0 a3.75 3.75 0 1 0 -7.5 0zM791.25 735 a3.75 3.75 0 1 0 7.5 0 a3.75 3.75 0 1 0 -7.5 0z" fill="black"></path><path d="M1031.25 495 a3.75 3.75 0 1 0 7.5 0 a3.75 3.75 0 1 0 -7.5 0zM1031.25 585 a3.75 3.75 0 1 0 7.5 0 a3.75 3.75 0 1 0 -7.5 0z" fill="black"></path><path d="M761.25 495 a3.75 3.75 0 1 0 7.5 0 a3.75 3.75 0 1 0 -7.5 0zM701.25 525 a3.75 3.75 0 1 0 7.5 0 a3.75 3.75 0 1 0 -7.5 0z" fill="black"></path><path d="M401.25 285 a3.75 3.75 0 1 0 7.5 0 a3.75 3.75 0 1 0 -7.5 0zM41.25 15 a3.75 3.75 0 1 0 7.5 0 a3.75 3.75 0 1 0 -7.5 0z" fill="black"></path><path d="M11.25 735 a3.75 3.75 0 1 0 7.5 0 a3.75 3.75 0 1 0 -7.5 0zM131.25 765 a3.75 3.75 0 1 0 7.5 0 a3.75 3.75 0 1 0 -7.5 0z" fill="black"></path><path d="M911.25 225 a3.75 3.75 0 1 0 7.5 0 a3.75 3.75 0 1 0 -7.5 0zM581.25 195 a3.75 3.75 0 1 0 7.5 0 a3.75 3.75 0 1 0 -7.5 0z" fill="black"></path><path d="M371.25 225 a3.75 3.75 0 1 0 7.5 0 a3.75 3.75 0 1 0 -7.5 0zM71.25 45 a3.75 3.75 0 1 0 7.5 0 a3.75 3.75 0 1 0 -7.5 0z" fill="black"></path><path d="M1061.25 15 a3.75 3.75 0 1 0 7.5 0 a3.75 3.75 0 1 0 -7.5 0zM1121.25 75 a3.75 3.75 0 1 0 7.5 0 a3.75 3.75 0 1 0 -7.5 0z" fill="black"></path><path d="M821.25 495 a3.75 3.75 0 1 0 7.5 0 a3.75 3.75 0 1 0 -7.5 0zM821.25 405 a3.75 3.75 0 1 0 7.5 0 a3.75 3.75 0 1 0 -7.5 0z" fill="black"></path><path d="M1181.25 585 a3.75 3.75 0 1 0 7.5 0 a3.75 3.75 0 1 0 -7.5 0zM1121.25 435 a3.75 3.75 0 1 0 7.5 0 a3.75 3.75 0 1 0 -7.5 0z" fill="black"></path><path d="M461.25 75 a3.75 3.75 0 1 0 7.5 0 a3.75 3.75 0 1 0 -7.5 0zM611.25 135 a3.75 3.75 0 1 0 7.5 0 a3.75 3.75 0 1 0 -7.5 0z" fill="black"></path><path d="M941.25 735 a3.75 3.75 0 1 0 7.5 0 a3.75 3.75 0 1 0 -7.5 0zM1151.25 735 a3.75 3.75 0 1 0 7.5 0 a3.75 3.75 0 1 0 -7.5 0z" fill="black"></path><path d="M1001.25 375 a3.75 3.75 0 1 0 7.5 0 a3.75 3.75 0 1 0 -7.5 0zM851.25 525 a3.75 3.75 0 1 0 7.5 0 a3.75 3.75 0 1 0 -7.5 0z" fill="black"></path><path d="M101.25 645 a3.75 3.75 0 1 0 7.5 0 a3.75 3.75 0 1 0 -7.5 0zM161.25 705 a3.75 3.75 0 1 0 7.5 0 a3.75 3.75 0 1 0 -7.5 0z" fill="black"></path><path d="M41.25 525 a3.75 3.75 0 1 0 7.5 0 a3.75 3.75 0 1 0 -7.5 0zM101.25 585 a3.75 3.75 0 1 0 7.5 0 a3.75 3.75 0 1 0 -7.5 0z" fill="black"></path><path d="M41.25 705 a3.75 3.75 0 1 0 7.5 0 a3.75 3.75 0 1 0 -7.5 0zM131.25 705 a3.75 3.75 0 1 0 7.5 0 a3.75 3.75 0 1 0 -7.5 0z" fill="black"></path><path d="M251.25 225 a3.75 3.75 0 1 0 7.5 0 a3.75 3.75 0 1 0 -7.5 0zM611.25 315 a3.75 3.75 0 1 0 7.5 0 a3.75 3.75 0 1 0 -7.5 0z" fill="black"></path><path d="M311.25 525 a3.75 3.75 0 1 0 7.5 0 a3.75 3.75 0 1 0 -7.5 0zM341.25 405 a3.75 3.75 0 1 0 7.5 0 a3.75 3.75 0 1 0 -7.5 0z" fill="black"></path><path d="M641.25 465 a3.75 3.75 0 1 0 7.5 0 a3.75 3.75 0 1 0 -7.5 0zM641.25 495 a3.75 3.75 0 1 0 7.5 0 a3.75 3.75 0 1 0 -7.5 0z" fill="black"></path><path d="M11.25 645 a3.75 3.75 0 1 0 7.5 0 a3.75 3.75 0 1 0 -7.5 0zM101.25 675 a3.75 3.75 0 1 0 7.5 0 a3.75 3.75 0 1 0 -7.5 0z" fill="black"></path><path d="M821.25 525 a3.75 3.75 0 1 0 7.5 0 a3.75 3.75 0 1 0 -7.5 0zM761.25 465 a3.75 3.75 0 1 0 7.5 0 a3.75 3.75 0 1 0 -7.5 0z" fill="black"></path><path d="M821.25 225 a3.75 3.75 0 1 0 7.5 0 a3.75 3.75 0 1 0 -7.5 0zM761.25 255 a3.75 3.75 0 1 0 7.5 0 a3.75 3.75 0 1 0 -7.5 0z" fill="black"></path><path d="M1031.25 705 a3.75 3.75 0 1 0 7.5 0 a3.75 3.75 0 1 0 -7.5 0zM971.25 735 a3.75 3.75 0 1 0 7.5 0 a3.75 3.75 0 1 0 -7.5 0z" fill="black"></path><path d="M791.25 615 a3.75 3.75 0 1 0 7.5 0 a3.75 3.75 0 1 0 -7.5 0zM881.25 705 a3.75 3.75 0 1 0 7.5 0 a3.75 3.75 0 1 0 -7.5 0z" fill="black"></path><path d="M1181.25 345 a3.75 3.75 0 1 0 7.5 0 a3.75 3.75 0 1 0 -7.5 0zM1271.25 135 a3.75 3.75 0 1 0 7.5 0 a3.75 3.75 0 1 0 -7.5 0z" fill="black"></path><path d="M131.25 345 a3.75 3.75 0 1 0 7.5 0 a3.75 3.75 0 1 0 -7.5 0zM71.25 405 a3.75 3.75 0 1 0 7.5 0 a3.75 3.75 0 1 0 -7.5 0z" fill="black"></path><path d="M1331.25 585 a3.75 3.75 0 1 0 7.5 0 a3.75 3.75 0 1 0 -7.5 0zM1391.25 585 a3.75 3.75 0 1 0 7.5 0 a3.75 3.75 0 1 0 -7.5 0z" fill="black"></path><path d="M851.25 705 a3.75 3.75 0 1 0 7.5 0 a3.75 3.75 0 1 0 -7.5 0zM731.25 615 a3.75 3.75 0 1 0 7.5 0 a3.75 3.75 0 1 0 -7.5 0z" fill="black"></path><path d="M71.25 285 a3.75 3.75 0 1 0 7.5 0 a3.75 3.75 0 1 0 -7.5 0zM41.25 375 a3.75 3.75 0 1 0 7.5 0 a3.75 3.75 0 1 0 -7.5 0z" fill="black"></path><path d="M1091.25 795 a3.75 3.75 0 1 0 7.5 0 a3.75 3.75 0 1 0 -7.5 0zM851.25 795 a3.75 3.75 0 1 0 7.5 0 a3.75 3.75 0 1 0 -7.5 0z" fill="black"></path><path d="M251.25 45 a3.75 3.75 0 1 0 7.5 0 a3.75 3.75 0 1 0 -7.5 0zM491.25 135 a3.75 3.75 0 1 0 7.5 0 a3.75 3.75 0 1 0 -7.5 0z" fill="black"></path><path d="M1271.25 555 a3.75 3.75 0 1 0 7.5 0 a3.75 3.75 0 1 0 -7.5 0zM1241.25 465 a3.75 3.75 0 1 0 7.5 0 a3.75 3.75 0 1 0 -7.5 0z" fill="black"></path><path d="M401.25 795 a3.75 3.75 0 1 0 7.5 0 a3.75 3.75 0 1 0 -7.5 0zM581.25 795 a3.75 3.75 0 1 0 7.5 0 a3.75 3.75 0 1 0 -7.5 0z" fill="black"></path><path d="M1361.25 435 a3.75 3.75 0 1 0 7.5 0 a3.75 3.75 0 1 0 -7.5 0zM1301.25 435 a3.75 3.75 0 1 0 7.5 0 a3.75 3.75 0 1 0 -7.5 0z" fill="black"></path><path d="M941.25 15 a3.75 3.75 0 1 0 7.5 0 a3.75 3.75 0 1 0 -7.5 0zM881.25 15 a3.75 3.75 0 1 0 7.5 0 a3.75 3.75 0 1 0 -7.5 0z" fill="black"></path><path d="M1301.25 675 a3.75 3.75 0 1 0 7.5 0 a3.75 3.75 0 1 0 -7.5 0zM1331.25 735 a3.75 3.75 0 1 0 7.5 0 a3.75 3.75 0 1 0 -7.5 0z" fill="black"></path><path d="M41.25 555 a3.75 3.75 0 1 0 7.5 0 a3.75 3.75 0 1 0 -7.5 0zM11.25 495 a3.75 3.75 0 1 0 7.5 0 a3.75 3.75 0 1 0 -7.5 0z" fill="black"></path><path d="M1091.25 675 a3.75 3.75 0 1 0 7.5 0 a3.75 3.75 0 1 0 -7.5 0zM1031.25 675 a3.75 3.75 0 1 0 7.5 0 a3.75 3.75 0 1 0 -7.5 0z" fill="black"></path><path d="M1121.25 585 a3.75 3.75 0 1 0 7.5 0 a3.75 3.75 0 1 0 -7.5 0zM1061.25 495 a3.75 3.75 0 1 0 7.5 0 a3.75 3.75 0 1 0 -7.5 0z" fill="black"></path><path d="M551.25 585 a3.75 3.75 0 1 0 7.5 0 a3.75 3.75 0 1 0 -7.5 0zM431.25 585 a3.75 3.75 0 1 0 7.5 0 a3.75 3.75 0 1 0 -7.5 0z" fill="black"></path><path d="M1031.25 45 a3.75 3.75 0 1 0 7.5 0 a3.75 3.75 0 1 0 -7.5 0zM971.25 105 a3.75 3.75 0 1 0 7.5 0 a3.75 3.75 0 1 0 -7.5 0z" fill="black"></path><path d="M41.25 165 a3.75 3.75 0 1 0 7.5 0 a3.75 3.75 0 1 0 -7.5 0zM41.25 105 a3.75 3.75 0 1 0 7.5 0 a3.75 3.75 0 1 0 -7.5 0z" fill="black"></path><path d="M1361.25 75 a3.75 3.75 0 1 0 7.5 0 a3.75 3.75 0 1 0 -7.5 0zM1421.25 75 a3.75 3.75 0 1 0 7.5 0 a3.75 3.75 0 1 0 -7.5 0z" fill="black"></path><path d="M1241.25 675 a3.75 3.75 0 1 0 7.5 0 a3.75 3.75 0 1 0 -7.5 0zM1241.25 615 a3.75 3.75 0 1 0 7.5 0 a3.75 3.75 0 1 0 -7.5 0z" fill="black"></path><path d="M1301.25 735 a3.75 3.75 0 1 0 7.5 0 a3.75 3.75 0 1 0 -7.5 0zM1181.25 735 a3.75 3.75 0 1 0 7.5 0 a3.75 3.75 0 1 0 -7.5 0z" fill="black"></path><path d="M101.25 435 a3.75 3.75 0 1 0 7.5 0 a3.75 3.75 0 1 0 -7.5 0zM221.25 435 a3.75 3.75 0 1 0 7.5 0 a3.75 3.75 0 1 0 -7.5 0z" fill="black"></path><path d="M881.25 135 a3.75 3.75 0 1 0 7.5 0 a3.75 3.75 0 1 0 -7.5 0zM761.25 135 a3.75 3.75 0 1 0 7.5 0 a3.75 3.75 0 1 0 -7.5 0z" fill="black"></path><path d="M131.25 405 a3.75 3.75 0 1 0 7.5 0 a3.75 3.75 0 1 0 -7.5 0zM221.25 405 a3.75 3.75 0 1 0 7.5 0 a3.75 3.75 0 1 0 -7.5 0z" fill="black"></path><path d="M521.25 525 a3.75 3.75 0 1 0 7.5 0 a3.75 3.75 0 1 0 -7.5 0zM461.25 495 a3.75 3.75 0 1 0 7.5 0 a3.75 3.75 0 1 0 -7.5 0z" fill="black"></path><path d="M671.25 765 a3.75 3.75 0 1 0 7.5 0 a3.75 3.75 0 1 0 -7.5 0zM731.25 765 a3.75 3.75 0 1 0 7.5 0 a3.75 3.75 0 1 0 -7.5 0z" fill="black"></path><path d="M401.25 315 a3.75 3.75 0 1 0 7.5 0 a3.75 3.75 0 1 0 -7.5 0zM581.25 285 a3.75 3.75 0 1 0 7.5 0 a3.75 3.75 0 1 0 -7.5 0z" fill="black"></path><path d="M251.25 165 a3.75 3.75 0 1 0 7.5 0 a3.75 3.75 0 1 0 -7.5 0zM311.25 165 a3.75 3.75 0 1 0 7.5 0 a3.75 3.75 0 1 0 -7.5 0z" fill="black"></path><path d="M311.25 735 a3.75 3.75 0 1 0 7.5 0 a3.75 3.75 0 1 0 -7.5 0zM281.25 675 a3.75 3.75 0 1 0 7.5 0 a3.75 3.75 0 1 0 -7.5 0z" fill="black"></path><path d="M1361.25 375 a3.75 3.75 0 1 0 7.5 0 a3.75 3.75 0 1 0 -7.5 0zM1331.25 315 a3.75 3.75 0 1 0 7.5 0 a3.75 3.75 0 1 0 -7.5 0z" fill="black"></path><path d="M641.25 225 a3.75 3.75 0 1 0 7.5 0 a3.75 3.75 0 1 0 -7.5 0zM731.25 195 a3.75 3.75 0 1 0 7.5 0 a3.75 3.75 0 1 0 -7.5 0z" fill="black"></path><path d="M881.25 615 a3.75 3.75 0 1 0 7.5 0 a3.75 3.75 0 1 0 -7.5 0zM821.25 615 a3.75 3.75 0 1 0 7.5 0 a3.75 3.75 0 1 0 -7.5 0z" fill="black"></path><path d="M521.25 615 a3.75 3.75 0 1 0 7.5 0 a3.75 3.75 0 1 0 -7.5 0zM461.25 525 a3.75 3.75 0 1 0 7.5 0 a3.75 3.75 0 1 0 -7.5 0z" fill="black"></path><path d="M251.25 15 a3.75 3.75 0 1 0 7.5 0 a3.75 3.75 0 1 0 -7.5 0zM431.25 105 a3.75 3.75 0 1 0 7.5 0 a3.75 3.75 0 1 0 -7.5 0z" fill="black"></path><path d="M281.25 405 a3.75 3.75 0 1 0 7.5 0 a3.75 3.75 0 1 0 -7.5 0zM281.25 495 a3.75 3.75 0 1 0 7.5 0 a3.75 3.75 0 1 0 -7.5 0z" fill="black"></path><path d="M311.25 405 a3.75 3.75 0 1 0 7.5 0 a3.75 3.75 0 1 0 -7.5 0zM251.25 315 a3.75 3.75 0 1 0 7.5 0 a3.75 3.75 0 1 0 -7.5 0z" fill="black"></path><path d="M851.25 45 a3.75 3.75 0 1 0 7.5 0 a3.75 3.75 0 1 0 -7.5 0zM881.25 105 a3.75 3.75 0 1 0 7.5 0 a3.75 3.75 0 1 0 -7.5 0z" fill="black"></path><path d="M1241.25 285 a3.75 3.75 0 1 0 7.5 0 a3.75 3.75 0 1 0 -7.5 0zM1241.25 165 a3.75 3.75 0 1 0 7.5 0 a3.75 3.75 0 1 0 -7.5 0z" fill="black"></path><path d="M641.25 645 a3.75 3.75 0 1 0 7.5 0 a3.75 3.75 0 1 0 -7.5 0zM761.25 705 a3.75 3.75 0 1 0 7.5 0 a3.75 3.75 0 1 0 -7.5 0z" fill="black"></path><path d="M491.25 75 a3.75 3.75 0 1 0 7.5 0 a3.75 3.75 0 1 0 -7.5 0zM581.25 105 a3.75 3.75 0 1 0 7.5 0 a3.75 3.75 0 1 0 -7.5 0z" fill="black"></path><path d="M1181.25 705 a3.75 3.75 0 1 0 7.5 0 a3.75 3.75 0 1 0 -7.5 0zM1181.25 645 a3.75 3.75 0 1 0 7.5 0 a3.75 3.75 0 1 0 -7.5 0z" fill="black"></path><path d="M161.25 465 a3.75 3.75 0 1 0 7.5 0 a3.75 3.75 0 1 0 -7.5 0zM281.25 555 a3.75 3.75 0 1 0 7.5 0 a3.75 3.75 0 1 0 -7.5 0z" fill="black"></path><path d="M1331.25 645 a3.75 3.75 0 1 0 7.5 0 a3.75 3.75 0 1 0 -7.5 0zM1301.25 585 a3.75 3.75 0 1 0 7.5 0 a3.75 3.75 0 1 0 -7.5 0z" fill="black"></path><path d="M191.25 135 a3.75 3.75 0 1 0 7.5 0 a3.75 3.75 0 1 0 -7.5 0zM131.25 45 a3.75 3.75 0 1 0 7.5 0 a3.75 3.75 0 1 0 -7.5 0z" fill="black"></path><path d="M521.25 585 a3.75 3.75 0 1 0 7.5 0 a3.75 3.75 0 1 0 -7.5 0zM551.25 525 a3.75 3.75 0 1 0 7.5 0 a3.75 3.75 0 1 0 -7.5 0z" fill="black"></path><path d="M101.25 735 a3.75 3.75 0 1 0 7.5 0 a3.75 3.75 0 1 0 -7.5 0zM41.25 735 a3.75 3.75 0 1 0 7.5 0 a3.75 3.75 0 1 0 -7.5 0z" fill="black"></path><path d="M941.25 45 a3.75 3.75 0 1 0 7.5 0 a3.75 3.75 0 1 0 -7.5 0zM1031.25 15 a3.75 3.75 0 1 0 7.5 0 a3.75 3.75 0 1 0 -7.5 0z" fill="black"></path><path d="M1211.25 255 a3.75 3.75 0 1 0 7.5 0 a3.75 3.75 0 1 0 -7.5 0zM1211.25 195 a3.75 3.75 0 1 0 7.5 0 a3.75 3.75 0 1 0 -7.5 0z" fill="black"></path><path d="M671.25 315 a3.75 3.75 0 1 0 7.5 0 a3.75 3.75 0 1 0 -7.5 0zM791.25 315 a3.75 3.75 0 1 0 7.5 0 a3.75 3.75 0 1 0 -7.5 0z" fill="black"></path><path d="M911.25 615 a3.75 3.75 0 1 0 7.5 0 a3.75 3.75 0 1 0 -7.5 0zM851.25 645 a3.75 3.75 0 1 0 7.5 0 a3.75 3.75 0 1 0 -7.5 0z" fill="black"></path><path d="M941.25 405 a3.75 3.75 0 1 0 7.5 0 a3.75 3.75 0 1 0 -7.5 0zM1001.25 405 a3.75 3.75 0 1 0 7.5 0 a3.75 3.75 0 1 0 -7.5 0z" fill="black"></path><path d="M611.25 435 a3.75 3.75 0 1 0 7.5 0 a3.75 3.75 0 1 0 -7.5 0zM671.25 405 a3.75 3.75 0 1 0 7.5 0 a3.75 3.75 0 1 0 -7.5 0z" fill="black"></path><path d="M71.25 315 a3.75 3.75 0 1 0 7.5 0 a3.75 3.75 0 1 0 -7.5 0zM71.25 375 a3.75 3.75 0 1 0 7.5 0 a3.75 3.75 0 1 0 -7.5 0z" fill="black"></path><path d="M1301.25 45 a3.75 3.75 0 1 0 7.5 0 a3.75 3.75 0 1 0 -7.5 0zM1421.25 45 a3.75 3.75 0 1 0 7.5 0 a3.75 3.75 0 1 0 -7.5 0z" fill="black"></path><path d="M251.25 555 a3.75 3.75 0 1 0 7.5 0 a3.75 3.75 0 1 0 -7.5 0zM161.25 495 a3.75 3.75 0 1 0 7.5 0 a3.75 3.75 0 1 0 -7.5 0z" fill="black"></path><path d="M1331.25 75 a3.75 3.75 0 1 0 7.5 0 a3.75 3.75 0 1 0 -7.5 0zM1361.25 135 a3.75 3.75 0 1 0 7.5 0 a3.75 3.75 0 1 0 -7.5 0z" fill="black"></path></mask></defs></svg>